<svg width="260" height="120" viewBox="0 0 260 120" xmlns="http://www.w3.org/2000/svg" role="img" aria-label="Wicked Ass Auditory Logo">
  <title>Wicked Ass Auditory Logo</title>

  <!-- Guitar body -->
  <ellipse cx="60" cy="80" rx="30" ry="20" fill="#b22222" stroke="#5a0000" stroke-width="2" />
  <!-- Guitar body shading -->
  <ellipse cx="55" cy="75" rx="10" ry="7" fill="#8b0000" opacity="0.6" />
  
  <!-- Guitar neck -->
  <rect x="85" y="40" width="14" height="60" fill="#8b0000" rx="4" />
  <!-- Guitar frets -->
  <line x1="85" y1="50" x2="99" y2="50" stroke="#b22222" stroke-width="1" />
  <line x1="85" y1="60" x2="99" y2="60" stroke="#b22222" stroke-width="1" />
  <line x1="85" y1="70" x2="99" y2="70" stroke="#b22222" stroke-width="1" />
  <line x1="85" y1="80" x2="99" y2="80" stroke="#b22222" stroke-width="1" />
  <line x1="85" y1="90" x2="99" y2="90" stroke="#b22222" stroke-width="1" />
  
  <!-- Guitar headstock -->
  <rect x="99" y="35" width="12" height="10" fill="#8b0000" rx="3" />
  <!-- Tuning pegs -->
  <circle cx="102" cy="40" r="2" fill="#b22222" />
  <circle cx="114" cy="40" r="2" fill="#b22222" />

  <!-- Strings (6) on guitar neck -->
  <line x1="88" y1="40" x2="88" y2="100" stroke="#d3d3d3" stroke-width="0.8" />
  <line x1="91" y1="40" x2="91" y2="100" stroke="#d3d3d3" stroke-width="0.8" />
  <line x1="94" y1="40" x2="94" y2="100" stroke="#d3d3d3" stroke-width="0.8" />
  <line x1="97" y1="40" x2="97" y2="100" stroke="#d3d3d3" stroke-width="0.8" />
  <line x1="100" y1="40" x2="100" y2="100" stroke="#d3d3d3" stroke-width="0.8" />
  <line x1="103" y1="40" x2="103" y2="100" stroke="#d3d3d3" stroke-width="0.8" />

  <!-- Amplifier body -->
  <rect x="140" y="50" width="60" height="50" fill="#b22222" stroke="#5a0000" stroke-width="2" rx="10" />
  <!-- Amplifier speaker grill -->
  <rect x="155" y="65" width="30" height="30" fill="#8b0000" rx="6" />
  <!-- Grill texture -->
  <line x1="155" y1="75" x2="185" y2="75" stroke="#b22222" stroke-width="1" />
  <line x1="155" y1="80" x2="185" y2="80" stroke="#b22222" stroke-width="1" />
  <line x1="155" y1="85" x2="185" y2="85" stroke="#b22222" stroke-width="1" />
  <line x1="155" y1="90" x2="185" y2="90" stroke="#b22222" stroke-width="1" />
  <line x1="155" y1="95" x2="185" y2="95" stroke="#b22222" stroke-width="1" />
  
  <!-- Amplifier knobs -->
  <circle cx="165" cy="55" r="4" fill="#8b0000" />
  <circle cx="180" cy="55" r="4" fill="#8b0000" />
  <circle cx="195" cy="55" r="4" fill="#8b0000" />

  <!-- Microphone handle -->
  <rect x="215" y="40" width="15" height="40" fill="#b22222" stroke="#5a0000" stroke-width="2" rx="5" />
  <!-- Microphone head -->
  <ellipse cx="222" cy="35" rx="12" ry="10" fill="#8b0000" stroke="#5a0000" stroke-width="2" />
  <!-- Microphone grille lines -->
  <line x1="210" y1="30" x2="235" y2="40" stroke="#b22222" stroke-width="2" />
  <line x1="210" y1="35" x2="235" y2="45" stroke="#b22222" stroke-width="2" />
  <line x1="210" y1="40" x2="235" y2="50" stroke="#b22222" stroke-width="2" />

  <!-- Cord guitar to amp -->
  <path d="M99 90 C115 105 135 105 140 100" stroke="#8b0000" stroke-width="4" fill="none" />
  <!-- Cord amp to mic -->
  <path d="M200 80 C208 90 212 90 215 80" stroke="#8b0000" stroke-width="4" fill="none" />
  <path d="M200 80 L215 80" stroke="#8b0000" stroke-width="4" />

</svg>
