<svg width="140" height="100" viewBox="0 0 140 100" xmlns="http://www.w3.org/2000/svg" role="img" aria-label="Wicked Ass Auditory Amp and Mic Logo">
  <title>Wicked Ass Auditory Amp and Mic Logo</title>

  <!-- Amplifier body -->
  <rect x="10" y="25" width="70" height="50" fill="#b22222" stroke="#5a0000" stroke-width="3" rx="10" />
  
  <!-- Speaker grill -->
  <rect x="25" y="40" width="40" height="30" fill="#8b0000" rx="6" />
  
  <!-- Grill texture -->
  <line x1="25" y1="50" x2="65" y2="50" stroke="#b22222" stroke-width="1.5" />
  <line x1="25" y1="55" x2="65" y2="55" stroke="#b22222" stroke-width="1.5" />
  <line x1="25" y1="60" x2="65" y2="60" stroke="#b22222" stroke-width="1.5" />
  <line x1="25" y1="65" x2="65" y2="65" stroke="#b22222" stroke-width="1.5" />
  <line x1="25" y1="70" x2="65" y2="70" stroke="#b22222" stroke-width="1.5" />

  <!-- Knobs -->
  <circle cx="30" cy="35" r="5" fill="#8b0000" />
  <circle cx="50" cy="35" r="5" fill="#8b0000" />
  <circle cx="65" cy="35" r="5" fill="#8b0000" />

  <!-- Cord from amp to mic -->
  <path d="M80 65 C100 90 110 90 115 65" stroke="#8b0000" stroke-width="4" fill="none" />

  <!-- Microphone handle -->
  <rect x="115" y="30" width="15" height="50" fill="#b22222" stroke="#5a0000" stroke-width="2" rx="5" />

  <!-- Microphone head -->
  <ellipse cx="122" cy="25" rx="12" ry="10" fill="#8b0000" stroke="#5a0000" stroke-width="2" />

  <!-- Mic grille lines moved up inside mic head -->
  <line x1="110" y1="18" x2="134" y2="18" stroke="#b22222" stroke-width="2" />
  <line x1="110" y1="24" x2="134" y2="24" stroke="#b22222" stroke-width="2" />
  <line x1="110" y1="30" x2="134" y2="30" stroke="#b22222" stroke-width="2" />

</svg>
