<svg width="220" height="120" viewBox="0 0 220 120" xmlns="http://www.w3.org/2000/svg" role="img" aria-label="Wicked Ass Auditory Logo">
  <title>Wicked Ass Auditory Logo</title>

  <!-- Guitar body -->
  <ellipse cx="50" cy="80" rx="30" ry="20" fill="#b22222" stroke="#5a0000" stroke-width="2" />
  <!-- Guitar body shading -->
  <ellipse cx="45" cy="75" rx="10" ry="7" fill="#8b0000" opacity="0.6" />
  
  <!-- Guitar neck -->
  <rect x="75" y="40" width="14" height="60" fill="#8b0000" rx="4" />
  <!-- Guitar frets -->
  <line x1="75" y1="50" x2="89" y2="50" stroke="#b22222" stroke-width="1" />
  <line x1="75" y1="60" x2="89" y2="60" stroke="#b22222" stroke-width="1" />
  <line x1="75" y1="70" x2="89" y2="70" stroke="#b22222" stroke-width="1" />
  <line x1="75" y1="80" x2="89" y2="80" stroke="#b22222" stroke-width="1" />
  <line x1="75" y1="90" x2="89" y2="90" stroke="#b22222" stroke-width="1" />
  
  <!-- Guitar headstock -->
  <rect x="87" y="35" width="12" height="10" fill="#8b0000" rx="3" />
  <!-- Tuning pegs -->
  <circle cx="90" cy="40" r="2" fill="#b22222" />
  <circle cx="102" cy="40" r="2" fill="#b22222" />

  <!-- Strings (6) on guitar neck -->
  <line x1="78" y1="40" x2="78" y2="100" stroke="#d3d3d3" stroke-width="0.8" />
  <line x1="81" y1="40" x2="81" y2="100" stroke="#d3d3d3" stroke-width="0.8" />
  <line x1="84" y1="40" x2="84" y2="100" stroke="#d3d3d3" stroke-width="0.8" />
  <line x1="87" y1="40" x2="87" y2="100" stroke="#d3d3d3" stroke-width="0.8" />
  <line x1="90" y1="40" x2="90" y2="100" stroke="#d3d3d3" stroke-width="0.8" />
  <line x1="93" y1="40" x2="93" y2="100" stroke="#d3d3d3" stroke-width="0.8" />

  <!-- Amplifier body -->
  <rect x="120" y="50" width="60" height="50" fill="#b22222" stroke="#5a0000" stroke-width="2" rx="10" />
  <!-- Amplifier speaker grill -->
  <rect x="135" y="65" width="30" height="30" fill="#8b0000" rx="6" />
  <!-- Grill texture -->
  <line x1="135" y1="75" x2="165" y2="75" stroke="#b22222" stroke-width="1" />
  <line x1="135" y1="80" x2="165" y2="80" stroke="#b22222" stroke-width="1" />
  <line x1="135" y1="85" x2="165" y2="85" stroke="#b22222" stroke-width="1" />
  <line x1="135" y1="90" x2="165" y2="90" stroke="#b22222" stroke-width="1" />
  <line x1="135" y1="95" x2="165" y2="95" stroke="#b22222" stroke-width="1" />
  
  <!-- Amplifier knobs -->
  <circle cx="140" cy="55" r="4" fill="#8b0000" />
  <circle cx="155" cy="55" r="4" fill="#8b0000" />
  <circle cx="170" cy="55" r="4" fill="#8b0000" />

  <!-- Microphone handle -->
  <rect x="190" y="40" width="15" height="40" fill="#b22222" stroke="#5a0000" stroke-width="2" rx="5" />
  <!-- Microphone head -->
  <ellipse cx="197" cy="35" rx="12" ry="10" fill="#8b0000" stroke="#5a0000" stroke-width="2" />
  <!-- Microphone grille lines -->
  <line x1="185" y1="30" x2="210" y2="40" stroke="#b22222" stroke-width="2" />
  <line x1="185" y1="35" x2="210" y2="45" stroke="#b22222" stroke-width="2" />
  <line x1="185" y1="40" x2="210" y2="50" stroke="#b22222" stroke-width="2" />

  <!-- Cord guitar to amp -->
  <path d="M80 90 C95 100 110 105 120 100" stroke="#8b0000" stroke-width="4" fill="none" />
  <!-- Cord amp to mic -->
  <path d="M180 80 C185 90 190 95 195 80" stroke="#8b0000" stroke-width="4" fill="none" />
  <!-- Cord joining amp and mic -->
  <path d="M180 80 L195 80" stroke="#8b0000" stroke-width="4" />

</svg>
